<svg id="Layer_5" enable-background="new 0 0 64 64" height="512" viewBox="0 0 64 64" width="512" xmlns="http://www.w3.org/2000/svg"><g><g><g><path d="m23 12c.55 0 1-.45 1-1v-1h26v2c0 2.21 1.79 4 4 4h7.85c.1.3.15.61.15.93 0 .85-.34 1.62-.9 2.17-.55.56-1.32.9-2.17.9h-15.73l.8-2h-6v2h-14v-2h-2v-6z" fill="#e6e9ed"/></g><g><path d="m44 18-.8 2-3.2 8h-2v-8-2z" fill="#ff826e"/></g><g><path d="m61.85 16h-7.85c-2.21 0-4-1.79-4-4v-2h1.72c3.92 0 7.59 1.96 9.76 5.23.16.24.29.5.37.77z" fill="#69d6f4"/></g><g><path d="m24 10v1c0 .55-.45 1-1 1h-1-4-4-4-4-1c-.55 0-1-.45-1-1v-2c0-.55.45-1 1-1h5 4 4 5c.55 0 1 .45 1 1z" fill="#fcd770"/></g><g><path d="m6 12h16v6h-16z" fill="#ffeaa7"/></g><g><path d="m24 20v2h-20v-4h2 4 4 4 4 2z" fill="#ccd1d9"/></g><g><path d="m24 22-4 10h-12l-4-10z" fill="#ccd1d9"/></g><g><path d="m62 38v4h-2-8-4l-4-4h-8-8-8v-4h26l4 4h2 4 4z" fill="#ccd1d9"/></g><g><path d="m20.22 52c-.15-1.06-.22-2.13-.22-3.21v-10.79-4-2h-12v16.79c0 4.7-1.39 9.3-4 13.21h20c-2.01-3.01-3.3-6.43-3.78-10z" fill="#e6e9ed"/></g><g><path d="m48 42-4-4h-24v10.79c0 1.08.07 2.15.22 3.21.48 3.57 1.77 6.99 3.78 10h36v-10-10z" fill="#69d6f4"/></g><g><path d="m11 56h6v6h-6z" fill="#69d6f4"/></g><g><path d="m12 46h4v6h-4z" fill="#69d6f4"/></g><g><path d="m12 36h4v6h-4z" fill="#69d6f4"/></g></g><g><path d="m17 35h-6v8h6zm-2 6h-2v-4h2z"/><path d="m17 45h-6v8h6zm-2 6h-2v-4h2z"/><path d="m61 33h-2v4h-2v-6h-2v6h-2v-4h-2v4h-.586l-4-4h-25.414v-.807l4-10.001v-1.192h12v8h3.677l3.2-8h15.053c2.244 0 4.07-1.826 4.07-4.07 0-.807-.236-1.587-.684-2.258-2.367-3.552-6.329-5.672-10.597-5.672h-26.719c0-1.103-.897-2-2-2h-4v-4h-2v4h-2v-6h-2v6h-2v-4h-2v4h-4c-1.103 0-2 .897-2 2v2c0 1.103.897 2 2 2v4h-2v5.192l4 10.001v16.596c0 4.345-1.236 8.552-3.558 12.211h-2.442v2h60v-20h2v-6h-2zm-32 20h6v8h-6zm-2 8h-2.442c-1.561-2.46-2.623-5.168-3.153-8h5.595zm10-8h6v8h-6zm8 0h6v8h-6zm0-2v-10.586l2.586 2.586h3.414v8zm-2 0h-6v-12h6zm-8 0h-6v-12h6zm-8 0h-5.88c-.071-.732-.12-1.469-.12-2.211v-9.789h6zm-7.677-20h-10.646l-3.2-8h17.046zm-6.323-18v4h-2v-4zm2 0h2v4h-2zm4 0h2v4h-2zm20.323 14h-.323v-8h3.523zm20.736-12h-6.059c-1.654 0-3-1.346-3-3v-1h.719c3.268 0 6.311 1.486 8.34 4zm-11.059-4v1c0 2.757 2.243 5 5 5h6.993c-.038 1.108-.946 2-2.063 2h-14.253l.8-2h-8.477v2h-12v-2h-2v-4c1.103 0 2-.897 2-2zm-44-2h18l.001 2h-18.001zm2 4h2v4h-2zm16 6v2h-18v-2zm-14 29.789v-15.789h10v15.789c0 4.305 1.106 8.491 3.212 12.211h-4.212v-6h-8v6h-4.212c2.106-3.72 3.212-7.906 3.212-12.211zm7 12.211h-4v-4h4zm37 0v-8h6v8zm6-10h-6v-8h6zm2-10h-12.586l-4-4h-23.414v-2h24.586l4 4h11.414z"/><path d="m39 13h2v2h-2z"/><path d="m31 13h2v2h-2z"/><path d="m35 13h2v2h-2z"/><path d="m27 13h2v2h-2z"/><path d="m43 13h2v2h-2z"/></g></g></svg>