<?xml version="1.0" encoding="iso-8859-1"?>
<!-- Generator: Adobe Illustrator 19.0.0, SVG Export Plug-In . SVG Version: 6.00 Build 0)  -->
<svg version="1.1" id="Capa_1" xmlns="http://www.w3.org/2000/svg" xmlns:xlink="http://www.w3.org/1999/xlink" x="0px" y="0px"
	 viewBox="0 0 512 512" style="enable-background:new 0 0 512 512;" xml:space="preserve">
<g>
	<rect x="180" y="432" style="fill:#B53C1D;" width="152" height="40"/>
	<rect x="196" y="354" style="fill:#B53C1D;" width="120" height="40"/>
	<rect x="216" y="273" style="fill:#B53C1D;" width="80" height="40"/>
</g>
<path style="fill:#E6FFFF;" d="M166,130c0-49.706,40.294-90,90-90s90,40.294,90,90v63H166V130z"/>
<rect x="166" y="193" style="fill:#81B3E6;" width="180" height="40"/>
<path style="fill:#F5601E;" d="M50,307v-0.156c0-81.666,47.523-152.229,116.421-185.552c1.869-19.46,9.934-37.107,22.2-50.95
	C85.515,99.641,10,194.502,10,307v7l40,48.615V307z"/>
<path style="fill:#B53C1D;" d="M95,417.308V307v-0.156c0-55.581,28.165-104.583,71-133.515V130c0-2.883,0.141-5.732,0.406-8.545
	C97.516,154.781,50,225.34,50,307v55.615L95,417.308z"/>
<g>
	<path style="fill:#F5601E;" d="M166,173.485C123.165,202.417,95,251.419,95,307v110.308L140,472V307
		c0-28.131,10.018-53.918,26.676-74H166V173.485z"/>
	<path style="fill:#F5601E;" d="M323.379,70.342c12.266,13.843,20.331,31.49,22.2,50.95C414.477,154.615,462,225.179,462,306.844
		V307v55.615L502,314v-7C502,194.502,426.485,99.641,323.379,70.342z"/>
</g>
<path style="fill:#B53C1D;" d="M462,362.615V307c0-81.66-47.516-152.219-116.406-185.545c0.265,2.813,0.406,5.662,0.406,8.545v43.33
	c42.835,28.932,71,77.934,71,133.515V307v110.308L462,362.615z"/>
<path style="fill:#F5601E;" d="M417,307c0-55.581-28.165-104.583-71-133.515V233h-0.676C361.982,253.082,372,278.869,372,307v165
	l45-54.692V307z"/>
<g>
	<polygon style="fill:#81B3E6;" points="140,472 10,472 10,314 	"/>
	<polygon style="fill:#81B3E6;" points="372,472 502,472 502,314 	"/>
</g>
<path d="M437.02,125.98c-30.686-30.686-67.795-52.607-108.291-64.539C310.482,42.096,284.628,30,256,30
	c-28.627,0-54.48,12.095-72.726,31.439C142.777,73.371,105.667,95.294,74.98,125.98C26.628,174.333,0,238.62,0,307v165
	c0,5.523,4.477,10,10,10c0,0,129.858,0,130,0c11,0,10-9.968,10-10V307c0-24.026,8.044-46.203,21.568-64h168.867
	C353.96,260.796,362,282.975,362,307v165c0,5.419,4.584,10,10,10h130c5.523,0,10-4.477,10-10V307
	C512,238.62,485.372,174.333,437.02,125.98z M492,307l-20,27.723V307c0-57.696-22.468-111.938-63.265-152.735
	c-16.074-16.074-34.242-29.286-53.881-39.413c-1.36-8.912-3.905-17.438-7.461-25.418C432.267,125.219,492,209.259,492,307z
	 M85,389.415L60,359.03V307c0-71.57,38.564-134.295,96-168.509v29.91C113.027,199.492,85,250.025,85,307V389.415z M176,203h160v20
	H176V203z M356,138.496c57.435,34.213,96,96.935,96,168.504v52.03l-25,30.385V307c0-56.977-28.026-107.514-71-138.605V138.496z
	 M256,50c44.112,0,80,35.888,80,80v53H176v-53C176,85.888,211.888,50,256,50z M164.606,89.435
	c-3.555,7.979-6.099,16.503-7.459,25.413c-19.639,10.128-37.807,23.343-53.881,39.417C62.468,195.062,40,249.304,40,307v27.723
	L20,307C20,209.259,79.733,125.221,164.606,89.435z M20,462V341.893L118.822,462H20z M130,307v137.107l-25-30.385V307
	c0-44.942,19.74-85.356,51-113.041v36.48C139.701,251.673,130,278.224,130,307z M356,230.44v-36.46
	c31.255,27.683,51,68.083,51,113.02v106.723l-25,30.385V307C382,278.224,372.297,251.676,356,230.44z M492,462h-98.822L492,341.893
	V462z"/>
<path d="M332,422H180c-5.523,0-10,4.477-10,10v40c0,5.523,4.477,10,10,10h152c5.523,0,10-4.477,10-10v-40
	C342,426.477,337.523,422,332,422z M322,462H190v-20h132V462z"/>
<path d="M186,354v40c0,5.523,4.477,10,10,10h120c5.523,0,10-4.477,10-10v-40c0-5.523-4.477-10-10-10H196
	C190.477,344,186,348.477,186,354z M206,364h100v20H206V364z"/>
<path d="M296,323c5.523,0,10-4.477,10-10v-40c0-5.523-4.477-10-10-10h-80c-5.523,0-10,4.477-10,10v40c0,5.523,4.477,10,10,10H296z
	 M226,283h60v20h-60V283z"/>
<g>
</g>
<g>
</g>
<g>
</g>
<g>
</g>
<g>
</g>
<g>
</g>
<g>
</g>
<g>
</g>
<g>
</g>
<g>
</g>
<g>
</g>
<g>
</g>
<g>
</g>
<g>
</g>
<g>
</g>
</svg>
