<svg id="Capa_1" enable-background="new 0 0 512 512" height="512" viewBox="0 0 512 512" width="512" xmlns="http://www.w3.org/2000/svg"><g><g><path clip-rule="evenodd" d="m410.62 320.886v-82.377c0-3.167-2.597-5.764-5.764-5.764h-63.971c-3.167 0-5.764 2.597-5.764 5.764v82.377z" fill="#ccf49f" fill-rule="evenodd"/></g><g><path clip-rule="evenodd" d="m410.62 320.886v-82.377c0-3.167-2.597-5.764-5.764-5.764h-21.229c3.196 0 5.792 2.597 5.792 5.764v82.377z" fill="#b3e59f" fill-rule="evenodd"/></g><g><path clip-rule="evenodd" d="m477.672 173.652c0-49.934-49.79-166.152-223.099-166.152s-223.099 116.218-223.099 166.152v11.528h37.178l37.178-18.062 37.207 23.569 37.178-23.569 37.178 23.569 37.178-23.569 37.178 23.569 37.178-23.569 37.178 23.569 37.178-23.569 37.207 18.062h37.178v-11.528z" fill="#ce9875" fill-rule="evenodd"/></g><g><path d="m189.89 105.053c-4.143 0-7.5-3.357-7.5-7.5v-7.818c0-4.143 3.357-7.5 7.5-7.5s7.5 3.357 7.5 7.5v7.818c0 4.142-3.358 7.5-7.5 7.5z"/></g><g><path d="m254.573 126.681c-4.143 0-7.5-3.357-7.5-7.5v-7.818c0-4.143 3.357-7.5 7.5-7.5s7.5 3.357 7.5 7.5v7.818c0 4.142-3.357 7.5-7.5 7.5z"/></g><g><path d="m126.803 117.122c-4.143 0-7.5-3.357-7.5-7.5v-7.818c0-4.143 3.357-7.5 7.5-7.5s7.5 3.357 7.5 7.5v7.818c0 4.143-3.358 7.5-7.5 7.5z"/></g><g><path d="m319.258 105.053c-4.143 0-7.5-3.357-7.5-7.5v-7.818c0-4.143 3.357-7.5 7.5-7.5s7.5 3.357 7.5 7.5v7.818c0 4.142-3.358 7.5-7.5 7.5z"/></g><g><path d="m370.018 118.035c-4.143 0-7.5-3.357-7.5-7.5v-7.818c0-4.143 3.357-7.5 7.5-7.5s7.5 3.357 7.5 7.5v7.818c0 4.143-3.358 7.5-7.5 7.5z"/></g><g><path clip-rule="evenodd" d="m470.453 135.274c-28.618-82.89-112.419-127.774-215.88-127.774-39.347 0-72.331 5.992-99.808 15.836 19.345-3.909 40.802-6.106 64.627-6.106 111.136 0 171.483 47.794 200.472 95.274 12.726 20.858 22.598 49.164 22.598 72.675h35.21c0-18.432-.913-31.672-7.219-49.905z" fill="#c6865c" fill-rule="evenodd"/></g><g><path clip-rule="evenodd" d="m456.672 476.48v-131.426h-401.344v131.426z" fill="#ffbc85" fill-rule="evenodd"/></g><g><path clip-rule="evenodd" d="m40.462 324.338v27.335c0 1.912 1.541 3.453 3.452 3.453h11.413 401.344 11.413c1.912 0 3.452-1.541 3.452-3.453v-27.335c0-1.883-1.541-3.453-3.452-3.453h-17.604-391.814-14.751c-1.912.001-3.453 1.57-3.453 3.453z" fill="#fde588" fill-rule="evenodd"/></g><g><g><path clip-rule="evenodd" d="m208.781 401.58v15.21c0 5.16-4.23 9.41-9.42 9.41h-99.72c-5.19 0-9.42-4.25-9.42-9.41v-15.21c0-5.19 4.23-9.45 9.42-9.45h99.72c5.19 0 9.42 4.26 9.42 9.45z" fill="#7e707d" fill-rule="evenodd"/></g><path clip-rule="evenodd" d="m208.78 401.58v15.21c0 5.16-4.22 9.41-9.42 9.41h-23.21c5.19 0 9.42-4.25 9.42-9.41v-15.21c0-5.19-4.23-9.45-9.42-9.45h23.21c5.2 0 9.42 4.26 9.42 9.45z" fill="#6a5c6b" fill-rule="evenodd"/></g><g><path clip-rule="evenodd" d="m126.289 426.204v60.349 12.812c0 2.825 2.311 5.136 5.136 5.136h36.151c2.825 0 5.136-2.311 5.136-5.136v-12.812-60.349z" fill="#fde588" fill-rule="evenodd"/></g><g><path clip-rule="evenodd" d="m110.91 484.241v12.498c0 4.28 2.768 7.761 6.135 7.761h17.348 30.216 17.348c3.367 0 6.135-3.481 6.135-7.761v-12.498c0-4.28-2.768-7.761-6.135-7.761h-64.912c-3.367 0-6.135 3.481-6.135 7.761z" fill="#7e707d" fill-rule="evenodd"/></g><g clip-rule="evenodd" fill-rule="evenodd"><path d="m110.91 484.241v12.498c0 4.28 2.768 7.761 6.135 7.761h17.348 30.216 17.348c3.367 0 6.135-3.481 6.135-7.761v-12.498c0-4.28-2.768-7.761-6.135-7.761h-64.912c-3.367 0-6.135 3.481-6.135 7.761z" fill="#7e707d"/><path d="m188.092 484.24v12.5c0 4.28-2.77 7.76-6.14 7.76h-14.66c3.36 0 6.13-3.48 6.13-7.76v-12.5c0-4.28-2.77-7.76-6.13-7.76h14.66c3.37 0 6.14 3.48 6.14 7.76z" fill="#6a5c6b"/><g><path d="m303.222 401.579v15.208c0 5.165 4.251 9.416 9.444 9.416h26.621 46.452 26.65c5.164 0 9.416-4.252 9.416-9.416v-15.208c0-5.193-4.251-9.445-9.416-9.445h-99.723c-5.193 0-9.444 4.252-9.444 9.445z" fill="#7e707d"/><g fill="#6a5c6b"><path d="m208.78 401.58v15.21c0 5.16-4.22 9.41-9.42 9.41h-23.21c5.19 0 9.42-4.25 9.42-9.41v-15.21c0-5.19-4.23-9.45-9.42-9.45h23.21c5.2 0 9.42 4.26 9.42 9.45z"/><path d="m421.805 401.58v15.21c0 5.16-4.22 9.41-9.42 9.41h-23.21c5.19 0 9.42-4.25 9.42-9.41v-15.21c0-5.19-4.23-9.45-9.42-9.45h23.21c5.2 0 9.42 4.26 9.42 9.45z"/></g></g></g><g><path clip-rule="evenodd" d="m339.288 426.204v60.349 12.812c0 2.825 2.34 5.136 5.164 5.136h36.151c2.825 0 5.136-2.311 5.136-5.136v-12.812-60.349z" fill="#fde588" fill-rule="evenodd"/></g><g><path clip-rule="evenodd" d="m323.937 484.241v12.498c0 4.28 2.768 7.761 6.135 7.761h17.348 30.216 17.348c3.367 0 6.135-3.481 6.135-7.761v-12.498c0-4.28-2.768-7.761-6.135-7.761h-64.912c-3.367 0-6.135 3.481-6.135 7.761z" fill="#7e707d" fill-rule="evenodd"/></g><path clip-rule="evenodd" d="m401.12 484.24v12.5c0 4.28-2.77 7.76-6.14 7.76h-14.66c3.36 0 6.13-3.48 6.13-7.76v-12.5c0-4.28-2.77-7.76-6.13-7.76h14.66c3.37 0 6.14 3.48 6.14 7.76z" fill="#6a5c6b" fill-rule="evenodd"/><g><path clip-rule="evenodd" d="m103.805 23.279v26.394h251.261 50.246v-26.394c0-8.674-7.105-15.779-15.779-15.779h-134.96-134.96c-8.703 0-15.808 7.105-15.808 15.779z" fill="#eff6ff" fill-rule="evenodd"/></g><g><path clip-rule="evenodd" d="m186.208 273.748v-16.407c0-2.197-1.798-4.023-4.023-4.023h-29.788c-2.226 0-4.023 1.826-4.023 4.023v16.407c0 10.386 8.503 18.918 18.917 18.918 10.415 0 18.917-8.532 18.917-18.918z" fill="#eff6ff" fill-rule="evenodd"/></g><g><path clip-rule="evenodd" d="m233.316 292.666c10.415 0 18.946-8.532 18.946-18.918v-16.407c0-2.197-1.826-4.023-3.995-4.023h-29.845c-2.226 0-3.995 1.826-3.995 4.023v16.407c.001 10.386 8.503 18.918 18.889 18.918z" fill="#eff6ff" fill-rule="evenodd"/></g><g><path clip-rule="evenodd" d="m173.112 273.748c0 8.104-5.164 15.066-12.355 17.748 2.026.77 4.251 1.17 6.534 1.17 10.415 0 18.917-8.532 18.917-18.918v-16.407c0-2.197-1.798-4.023-4.023-4.023h-13.097c2.226 0 4.023 1.826 4.023 4.023v16.407z" fill="#d9eeff" fill-rule="evenodd"/></g><g><path clip-rule="evenodd" d="m239.166 273.748c0 8.104-5.164 15.066-12.383 17.748 2.054.77 4.251 1.17 6.534 1.17 10.415 0 18.946-8.532 18.946-18.918v-16.407c0-2.197-1.826-4.023-3.995-4.023h-13.125c2.197 0 4.023 1.826 4.023 4.023z" fill="#d9eeff" fill-rule="evenodd"/></g><g><path clip-rule="evenodd" d="m456.672 476.48v-121.354h-36.408-11.413v37.008h3.538 1.455c4.366 0 7.961 3.595 7.961 7.989v1.455 15.208 1.455c0 4.366-3.595 7.961-7.961 7.961h-1.455-3.538v50.276h47.821z" fill="#f5a96c" fill-rule="evenodd"/></g><g><path clip-rule="evenodd" d="m471.538 351.673v-27.335c0-1.883-1.541-3.453-3.452-3.453h-17.606-30.216c1.912 0 3.452 1.569 3.452 3.453v20.715 6.62c0 1.912-1.541 3.453-3.452 3.453h36.408 11.413c1.912 0 3.453-1.541 3.453-3.453z" fill="#fdd76f" fill-rule="evenodd"/></g><g><path clip-rule="evenodd" d="m405.313 49.673v-26.394c0-8.674-7.105-15.779-15.779-15.779h-50.218c8.674.029 15.75 7.105 15.75 15.779v.285.342 25.766h50.247z" fill="#d9eeff" fill-rule="evenodd"/></g><path clip-rule="evenodd" d="m126.289 426.204h46.423v23.796h-46.423z" fill="#fdd76f" fill-rule="evenodd"/><path clip-rule="evenodd" d="m339.302 427.543h46.423v23.796h-46.423z" fill="#fdd76f" fill-rule="evenodd"/><g><path d="m362.628 268.437h22.826c4.143 0 7.5-3.357 7.5-7.5s-3.357-7.5-7.5-7.5h-22.826c-4.143 0-7.5 3.357-7.5 7.5s3.357 7.5 7.5 7.5z"/><path d="m362.628 299.225h22.826c4.143 0 7.5-3.357 7.5-7.5s-3.357-7.5-7.5-7.5h-22.826c-4.143 0-7.5 3.357-7.5 7.5s3.357 7.5 7.5 7.5z"/><path d="m485.719 468.979h-21.549v-106.359l3.91.01c6.04 0 10.96-4.92 10.96-10.96v-27.33c0-6.04-4.92-10.95-10.96-10.95h-10.1v-120.57c0-.05-.01-.09-.01-.14h19.7c4.14 0 7.5-3.36 7.5-7.5v-11.53c0-27.81-15.34-85.47-72.36-127.79v-22.58c0-12.84-10.44-23.28-23.28-23.28h-269.92c-12.85 0-23.3 10.44-23.3 23.28v22.6c-57 42.32-72.34 99.97-72.34 127.77v11.53c0 4.14 3.36 7.5 7.5 7.5h19.7v120.71h-7.25c-6.04 0-10.96 4.91-10.96 10.95v27.33c0 6.04 4.92 10.96 10.96 10.96h3.91v106.349h-21.549c-4.143 0-7.5 3.357-7.5 7.5s3.357 7.5 7.5 7.5h77.141c-.001.088-.012.173-.012.261v12.498c0 8.415 6.116 15.261 13.635 15.261h64.912c7.519 0 13.635-6.846 13.635-15.261v-12.498c0-.088-.01-.173-.012-.261h120.868c-.001.088-.012.173-.012.261v12.498c0 8.415 6.116 15.261 13.635 15.261h64.913c7.518 0 13.634-6.846 13.634-15.261v-12.498c0-.088-.01-.173-.012-.261h77.112c4.143 0 7.5-3.357 7.5-7.5s-3.357-7.5-7.499-7.5zm-305.127 27.76c0 .096-.006.183-.015.261h-62.152c-.009-.078-.015-.165-.015-.261v-12.498c0-.095.006-.182.015-.261h.365 15 31.42 15 .367c.009.079.015.166.015.261zm213.026 0c0 .096-.006.182-.015.261h-62.152c-.009-.079-.015-.165-.015-.261v-12.498c0-.095.006-.182.015-.261h.339 15 31.45 15 .364c.009.079.015.166.015.261v12.498zm-354.648-319.059v-4.03c0-23.41 14.13-77.53 67.29-116.48h131.28c4.14 0 7.5-3.35 7.5-7.5 0-4.14-3.36-7.5-7.5-7.5h-126.23v-18.89c0-4.57 3.72-8.28 8.3-8.28h269.92c4.57 0 8.28 3.71 8.28 8.28v18.89h-125.43c-4.14 0-7.5 3.36-7.5 7.5 0 4.15 3.36 7.5 7.5 7.5h130.51c53.16 38.95 67.28 93.07 67.28 116.48v4.03h-27.95l-35.66-17.31c-2.33-1.13-5.09-.98-7.29.41l-33.16 21.03-33.16-21.03c-2.46-1.55-5.58-1.55-8.04 0l-33.16 21.03-33.16-21.03c-2.45-1.55-5.58-1.55-8.03 0l-33.17 21.03-33.16-21.03c-2.45-1.55-5.58-1.55-8.03 0l-33.16 21.03-33.2-21.03c-2.19-1.39-4.95-1.54-7.29-.41l-35.62 17.31zm365.89 47.57h-63.97c-7.32 0-13.27 5.95-13.27 13.26v74.88h-86.8v-14.31c10.94-3.24 18.94-13.37 18.94-25.33v-16.41c0-6.35-5.15-11.52-11.49-11.52h-29.85c-6.34 0-11.49 5.17-11.49 11.52v16.41c0 11.96 7.98 22.08 18.89 25.32v14.32h-51.03v-14.31c10.92-3.25 18.92-13.37 18.92-25.33v-16.41c0-6.35-5.17-11.52-11.52-11.52h-29.79c-6.36 0-11.53 5.17-11.53 11.52v16.41c0 11.96 8 22.08 18.92 25.33v14.31h-93.62v-120.71h2.48c1.14 0 2.26-.26 3.28-.75l33.42-16.24 33.67 21.33c2.46 1.56 5.58 1.56 8.03 0l33.17-21.02 33.16 21.02c2.45 1.56 5.58 1.56 8.03 0l33.16-21.02 33.17 21.02c2.45 1.56 5.58 1.56 8.03 0l33.16-21.02 33.16 21.02c1.23.78 2.62 1.17 4.02 1.17 1.39 0 2.79-.39 4.01-1.17l33.65-21.33 33.45 16.24c1.02.49 2.14.75 3.27.75h2.5c0 .05-.01.09-.01.14v120.57h-24.86v-74.88c0-7.31-5.95-13.26-13.26-13.26zm-1.74 15v73.14h-60.5v-73.14zm-169.8 44.92c-6.28 0-11.39-5.13-11.39-11.42v-12.93h22.83v12.93c0 6.29-5.13 11.42-11.44 11.42zm-66.03 0c-6.29 0-11.42-5.13-11.42-11.42v-12.93h22.84v12.93c0 6.29-5.12 11.42-11.42 11.42zm70.73 62.46h-190.06v-19.24h416.08v19.23l-190.82-.31c-.01 0 .01.32.01.32-4.14 0-7.49 3.35-7.5 7.48-.01 4.15 3.34 7.51 7.49 7.52l175.95-.03v106.38h-54.186-1.744v-35.28h20.6c8.53 0 15.46-6.93 15.46-15.46v-18.12c0-8.54-6.93-15.49-15.46-15.49h-102.63c-8.54 0-15.49 6.95-15.49 15.49v18.12c0 8.53 6.95 15.46 15.49 15.46h20.58v35.28h-1.719-148.114-1.747v-35.276h19.152c9.327 0 16.916-7.589 16.916-16.916v-15.208c0-9.343-7.589-16.944-16.916-16.944h-99.722c-9.327 0-16.916 7.602-16.916 16.944v15.208c0 9.327 7.589 16.916 16.916 16.916h19.15v35.276h-1.745-54.215v-106.35h175.19c4.15 0 7.5-3.36 7.5-7.5 0-4.15-3.35-7.5-7.5-7.5zm108.77 86.07h31.45v35.28h-31.45zm-35.58-15c-.26 0-.49-.25-.49-.46v-18.12c0-.25.24-.49.49-.49h102.63c.21 0 .46.22.46.49v18.12c0 .23-.23.46-.46.46zm-177.42 15.003h31.42v35.276h-31.42zm-34.15-15c-1.038 0-1.916-.877-1.916-1.916v-15.208c0-1.054.878-1.944 1.916-1.944h99.723c1.038 0 1.916.891 1.916 1.944v15.208c0 1.039-.878 1.916-1.916 1.916z"/></g></g></svg>